HIERARCHY
ROOT Hips
{
	OFFSET 0.000000 0.000000 0.000000
	CHANNELS 6 Xposition Yposition Zposition Zrotation Yrotation Xrotation 
	JOINT LHipJoint
	{
		OFFSET 0.000000 0.000000 0.000000
		CHANNELS 3 Zrotation Yrotation Xrotation
		JOINT LeftUpLeg
		{
			OFFSET 1.363060 -1.794630 0.839290
			CHANNELS 3 Zrotation Yrotation Xrotation
			JOINT LeftLeg
			{
				OFFSET 2.448110 -6.726130 0.000000
				CHANNELS 3 Zrotation Yrotation Xrotation
				JOINT LeftFoot
				{
					OFFSET 2.562200 -7.039590 0.000000
					CHANNELS 3 Zrotation Yrotation Xrotation
					JOINT LeftToeBase
					{
						OFFSET 0.157640 -0.433110 2.322550
						CHANNELS 3 Zrotation Yrotation Xrotation
						End Site
						{
							OFFSET 0.000000 0.000000 0.000000
						}
					}
				}
			}
		}
	}
	JOINT RHipJoint
	{
		OFFSET 0.000000 0.000000 0.000000
		CHANNELS 3 Zrotation Yrotation Xrotation
		JOINT RightUpLeg
		{
			OFFSET -1.305520 -1.794630 0.839290
			CHANNELS 3 Zrotation Yrotation Xrotation
			JOINT RightLeg
			{
				OFFSET -2.542530 -6.985550 0.000000
				CHANNELS 3 Zrotation Yrotation Xrotation
				JOINT RightFoot
				{
					OFFSET -2.568260 -7.056230 0.000000
					CHANNELS 3 Zrotation Yrotation Xrotation
					JOINT RightToeBase
					{
						OFFSET -0.164730 -0.452590 2.363150
						CHANNELS 3 Zrotation Yrotation Xrotation
						End Site
						{
							OFFSET 0.000000 0.000000 0.000000
						}
					}
				}
			}
		}
	}
	JOINT LowerBack
	{
		OFFSET 0.000000 0.000000 0.000000
		CHANNELS 3 Zrotation Yrotation Xrotation
		JOINT Spine
		{
			OFFSET 0.028270 2.035590 -0.193380
			CHANNELS 3 Zrotation Yrotation Xrotation
			JOINT Spine1
			{
				OFFSET 0.056720 2.048850 -0.042750
				CHANNELS 3 Zrotation Yrotation Xrotation
				JOINT Neck
				{
					OFFSET 0.000000 0.000000 0.000000
					CHANNELS 3 Zrotation Yrotation Xrotation
					JOINT Neck1
					{
						OFFSET -0.054170 1.746240 0.172020
						CHANNELS 3 Zrotation Yrotation Xrotation
						JOINT Head
						{
							OFFSET 0.104070 1.761360 -0.123970
							CHANNELS 3 Zrotation Yrotation Xrotation
							End Site
							{
								OFFSET 0.000000 0.000000 0.000000
							}
						}
					}
				}
				JOINT LeftShoulder
				{
					OFFSET 0.000000 0.000000 0.000000
					CHANNELS 3 Zrotation Yrotation Xrotation
					JOINT LeftArm
					{
						OFFSET 3.362410 1.200890 -0.311210
						CHANNELS 3 Zrotation Yrotation Xrotation
						JOINT LeftForeArm
						{
							OFFSET 4.983000 -0.000000 -0.000000
							CHANNELS 3 Zrotation Yrotation Xrotation
							JOINT LeftHand
							{
								OFFSET 3.483560 -0.000000 -0.000000
								CHANNELS 3 Zrotation Yrotation Xrotation
								JOINT LeftFingerBase
								{
									OFFSET 0.000000 0.000000 0.000000
									CHANNELS 3 Zrotation Yrotation Xrotation
									JOINT LeftHandIndex1
									{
										OFFSET 0.715260 -0.000000 -0.000000
										CHANNELS 3 Zrotation Yrotation Xrotation
										End Site
										{
											OFFSET 0.000000 0.000000 0.000000
										}
									}
								}
								JOINT LThumb
								{
									OFFSET 0.000000 0.000000 0.000000
									CHANNELS 3 Zrotation Yrotation Xrotation
									End Site
									{
										OFFSET 0.000000 0.000000 0.000000
									}
								}
							}
						}
					}
				}
				JOINT RightShoulder
				{
					OFFSET 0.000000 0.000000 0.000000
					CHANNELS 3 Zrotation Yrotation Xrotation
					JOINT RightArm
					{
						OFFSET -3.136600 1.374050 -0.404650
						CHANNELS 3 Zrotation Yrotation Xrotation
						JOINT RightForeArm
						{
							OFFSET -5.241900 -0.000000 -0.000000
							CHANNELS 3 Zrotation Yrotation Xrotation
							JOINT RightHand
							{
								OFFSET -3.444170 -0.000000 -0.000000
								CHANNELS 3 Zrotation Yrotation Xrotation
								JOINT RightFingerBase
								{
									OFFSET 0.000000 0.000000 0.000000
									CHANNELS 3 Zrotation Yrotation Xrotation
									JOINT RightHandIndex1
									{
										OFFSET -0.622530 -0.000000 -0.000000
										CHANNELS 3 Zrotation Yrotation Xrotation
										End Site
										{
											OFFSET 0.000000 0.000000 0.000000
										}
									}
								}
								JOINT RThumb
								{
									OFFSET 0.000000 0.000000 0.000000
									CHANNELS 3 Zrotation Yrotation Xrotation
									End Site
									{
										OFFSET 0.000000 0.000000 0.000000
									}
								}
							}
						}
					}
				}
			}
		}
	}
}
MOTION
Frames: 12
Frame Time: 0.008333
-2.284295 16.890179 -0.323286 3.098398 73.182967 5.240885 -10.539319 0.699729 2.888977 -1.653415 -0.421048 -25.925545 -1.566680 0.536045 15.394318 0.175878 -0.026709 5.624243 0.139100 -0.000000 -41.449300 9.384741 -3.114544 -0.800191 6.520935 -1.506080 9.931490 1.355946 -2.535144 28.558495 0.502948 5.666529 0.275824 0.575699 0.000000 -65.775700 -3.510088 0.393000 -3.633532 -1.181329 0.500563 -2.912879 -4.901915 0.413415 2.751155 10.201014 -12.465056 -8.463491 -1.586805 -0.115589 -0.189014 0.000000 0.000000 0.000000 -3.554303 24.720783 1.416732 -81.516437 25.666400 -0.595694 -3.874395 -12.672578 -0.016300 -3.169056 6.831820 -0.189108 -0.069662 -0.134852 -0.000000 0.000000 0.000000 0.000000 0.000000 0.000000 0.000000 10.113005 -7.287459 -1.397821 50.093495 20.913868 15.389596 0.889609 59.021758 -0.000844 -1.750961 6.998886 -0.112703 0.041808 -0.241398 0.000000 0.000000 0.000000 0.000000 0.000000 0.000000 0.000000 
-2.122235 16.892153 -0.303054 3.723342 72.432528 5.647351 -10.587474 0.790789 2.672489 -2.035862 0.655123 -25.671993 -1.558747 0.613254 16.332329 0.195834 0.050435 5.989519 0.143100 0.000000 -40.944500 9.554746 -3.196909 -0.803225 5.740217 -1.849112 9.309000 1.119174 -2.703645 30.368042 0.493152 5.826242 1.811227 0.741200 -0.000000 -68.168600 -3.799408 0.352702 -3.535564 -1.245559 0.486029 -2.907850 -4.939389 0.399886 2.719657 10.274497 -12.510303 -8.446306 -1.613754 -0.117828 -0.185369 0.000000 0.000000 0.000000 -3.536255 24.643020 1.383921 -81.370902 25.404868 -0.466789 -3.861732 -12.843519 -0.015554 -3.036923 6.565775 -0.174097 -0.069646 -0.133015 -0.000000 0.000000 0.000000 0.000000 0.000000 0.000000 0.000000 10.296516 -7.321332 -1.419110 50.625875 20.556297 15.744673 0.904901 59.152787 -0.000524 -1.705153 7.067480 -0.110891 0.042136 -0.241103 0.000000 0.000000 0.000000 0.000000 0.000000 0.000000 0.000000 
-1.963131 16.894763 -0.281552 4.340902 71.657369 6.040843 -10.626886 0.883045 2.442001 -2.448436 1.842981 -25.378315 -1.572956 0.674768 17.166704 0.207337 0.072922 6.120146 0.137400 -0.000000 -40.358900 9.734984 -3.268709 -0.806662 4.930213 -2.243417 8.581132 0.868296 -2.859594 32.276374 0.457876 5.904404 3.388720 0.915700 0.000000 -69.823201 -4.091603 0.300233 -3.424908 -1.309179 0.459887 -2.902338 -4.975639 0.374780 2.682821 10.332888 -12.538047 -8.428573 -1.642826 -0.120224 -0.181571 0.000000 0.000000 0.000000 -3.518837 24.531916 1.354513 -81.198224 25.085096 -0.312611 -3.850590 -13.016755 -0.014859 -2.916126 6.321072 -0.160786 -0.069676 -0.130934 -0.000000 0.000000 0.000000 0.000000 0.000000 0.000000 0.000000 10.465144 -7.340008 -1.439904 51.251731 20.177051 16.099072 0.924788 59.193206 -0.000161 -1.657786 7.123706 -0.108675 0.042726 -0.240376 -0.000000 0.000000 0.000000 0.000000 0.000000 0.000000 0.000000 
-1.807097 16.897731 -0.258881 4.941633 70.860149 6.418906 -10.656083 0.976278 2.208048 -2.872880 3.073538 -25.042715 -1.606460 0.721887 17.906345 0.212145 0.064499 6.006377 0.127400 -0.000001 -39.744100 9.922818 -3.326376 -0.812116 4.104980 -2.680334 7.753749 0.607760 -3.000601 34.269977 0.392214 5.845672 4.968579 1.079000 -0.000000 -70.680200 -4.382640 0.236044 -3.307663 -1.371310 0.421974 -2.897201 -5.010180 0.337830 2.640505 10.375630 -12.552008 -8.410054 -1.673621 -0.122758 -0.177493 0.000000 0.000000 0.000000 -3.504519 24.381831 1.328139 -80.994785 24.716818 -0.118501 -3.841228 -13.200330 -0.014246 -2.815318 6.105937 -0.149875 -0.069705 -0.128682 -0.000000 0.000000 0.000000 0.000000 0.000000 0.000000 0.000000 10.617406 -7.348194 -1.459583 51.964722 19.776756 16.449646 0.949213 59.143724 0.000249 -1.607677 7.164898 -0.106058 0.043562 -0.239185 -0.000000 0.000000 0.000000 0.000000 0.000000 0.000000 0.000000 
-1.654182 16.900811 -0.235144 5.512900 70.043256 6.775238 -10.674326 1.070006 1.980743 -3.292660 4.280244 -24.662394 -1.654284 0.755968 18.561145 0.213785 0.060149 5.659600 0.120600 0.000001 -39.163400 10.115270 -3.366636 -0.821286 3.280851 -3.149861 6.834229 0.342812 -3.125499 36.335185 0.292568 5.587464 6.501663 1.201800 0.000000 -70.671799 -4.668281 0.161267 -3.189718 -1.431198 0.372838 -2.892516 -5.042790 0.289562 2.595869 10.405356 -12.555988 -8.392584 -1.705685 -0.125373 -0.173631 0.000000 0.000000 0.000000 -3.486040 24.204103 1.304805 -80.756495 24.290426 0.136623 -3.833931 -13.378464 -0.013721 -2.737320 5.920744 -0.141265 -0.069755 -0.126285 -0.000000 0.000000 0.000000 0.000000 0.000000 0.000000 0.000000 10.756337 -7.349938 -1.478640 52.752870 19.355845 16.792003 0.977625 59.008370 0.000696 -1.554188 7.189468 -0.103041 0.044581 -0.237513 0.000000 0.000000 0.000000 0.000000 0.000000 0.000000 0.000000 
-1.504352 16.903907 -0.210488 6.040343 69.206662 7.101045 -10.681484 1.163338 1.769254 -3.693317 5.402716 -24.234640 -1.710041 0.778215 19.139564 0.217220 0.103173 5.107475 0.124800 -0.000000 -38.663300 10.308893 -3.386735 -0.835352 2.477108 -3.639245 5.832876 0.079014 -3.234145 38.451853 0.156867 5.066639 7.939504 1.248800 -0.000001 -69.890900 -4.941398 0.078040 -3.076491 -1.487669 0.313867 -2.889254 -5.073762 0.231302 2.547831 10.423361 -12.555087 -8.374438 -1.738989 -0.128105 -0.169449 0.000000 0.000000 0.000000 -3.469163 23.987716 1.282845 -80.478027 23.823321 0.456533 -3.828513 -13.565364 -0.013290 -2.682520 5.768124 -0.134755 -0.069814 -0.123813 -0.000000 0.000000 0.000000 0.000000 0.000000 0.000000 0.000000 10.883619 -7.351300 -1.495627 53.606118 18.914926 17.123076 1.010339 58.788330 0.001187 -1.495723 7.198628 -0.099322 0.045778 -0.235354 0.000000 0.000000 0.000000 0.000000 0.000000 0.000000 0.000000 
-1.357589 16.906945 -0.185059 6.510657 68.350127 7.386604 -10.677980 1.255160 1.580940 -4.063378 6.391484 -23.755930 -1.766716 0.789742 19.647117 0.228114 0.238745 4.391585 0.145700 -0.000000 -38.287300 10.500362 -3.384632 -0.855409 1.712147 -4.136627 4.761638 -0.178229 -3.327477 40.597391 -0.015535 4.228606 9.232762 1.183099 0.000000 -68.435800 -5.195514 -0.011236 -2.972033 -1.539784 0.246860 -2.887633 -5.103622 0.164868 2.497700 10.433091 -12.554044 -8.355457 -1.773554 -0.130965 -0.164896 0.000000 0.000000 0.000000 -3.452578 23.734515 1.260974 -80.154623 23.317868 0.845469 -3.824720 -13.756863 -0.012936 -2.644768 5.643649 -0.129946 -0.069929 -0.121294 -0.000000 0.000000 0.000000 0.000000 0.000000 0.000000 0.000000 11.004436 -7.357414 -1.509997 54.510772 18.455253 17.438500 1.047313 58.486045 0.001716 -1.432013 7.194859 -0.095202 0.047123 -0.232721 -0.000000 0.000000 0.000000 0.000000 0.000000 0.000000 0.000000 
-1.213748 16.910002 -0.158940 6.911893 67.472141 7.622430 -10.664704 1.344346 1.420701 -4.395237 7.213059 -23.224458 -1.817670 0.791724 20.087940 0.252001 0.506571 3.560647 0.184800 0.000000 -38.062300 10.686665 -3.359441 -0.882274 1.001950 -4.631916 3.631625 -0.423164 -3.407592 42.754515 -0.222811 3.042926 10.312679 0.974200 -0.000000 -66.169300 -5.425568 -0.104176 -2.878936 -1.586961 0.173798 -2.887065 -5.133108 0.092339 2.449540 10.440002 -12.555510 -8.337226 -1.809401 -0.133931 -0.160459 0.000000 0.000000 0.000000 -3.427185 23.462127 1.238589 -79.782463 22.757691 1.310754 -3.822260 -13.928425 -0.012628 -2.611869 5.537244 -0.125837 -0.070202 -0.118703 -0.000000 0.000000 0.000000 0.000000 0.000000 0.000000 0.000000 11.126788 -7.370659 -1.522507 55.451401 17.976672 17.731308 1.088138 58.106035 0.002273 -1.361742 7.181241 -0.090483 0.048530 -0.229638 -0.000000 0.000000 0.000000 0.000000 0.000000 0.000000 0.000000 
-1.072836 16.913230 -0.132266 7.235673 66.570759 7.799834 -10.643110 1.429762 1.290450 -4.683727 7.851612 -22.639605 -1.857237 0.785532 20.464216 0.293705 0.936063 2.666341 0.239600 -0.000000 -37.995100 10.864739 -3.311153 -0.915751 0.361739 -5.114368 2.457865 -0.651631 -3.476470 44.889970 -0.463207 1.498798 11.141921 0.606500 0.000000 -63.366000 -5.624828 -0.198237 -2.797803 -1.628257 0.096774 -2.887817 -5.163098 0.015862 2.402177 10.446665 -12.563093 -8.317717 -1.846877 -0.137066 -0.155572 0.000000 0.000000 0.000000 -3.398775 23.161737 1.213858 -79.357773 22.158877 1.835433 -3.820440 -14.090504 -0.012335 -2.569779 5.443475 -0.121624 -0.070687 -0.116076 -0.000000 0.000000 0.000000 0.000000 0.000000 0.000000 0.000000 11.255055 -7.395272 -1.531715 56.417195 17.480591 17.996761 1.133337 57.646607 0.002867 -1.284801 7.162151 -0.085363 0.050010 -0.226126 0.000000 0.000000 0.000000 0.000000 0.000000 0.000000 0.000000 
-0.934740 16.916829 -0.105111 7.476073 65.643841 7.911090 -10.615105 1.510621 1.189034 -4.926865 8.311324 -22.003846 -1.881485 0.772824 20.778562 0.356510 1.540003 1.757600 0.304500 0.000001 -38.074600 11.031940 -3.241229 -0.955394 -0.197488 -5.576591 1.253826 -0.859451 -3.536691 46.976907 -0.732127 -0.374255 11.668344 0.086600 0.000000 -60.027600 -5.789041 -0.291423 -2.727355 -1.663200 0.017588 -2.889170 -5.194484 -0.062627 2.357655 10.456896 -12.577515 -8.297242 -1.886260 -0.140384 -0.150380 0.000000 0.000000 0.000000 -3.363219 22.843383 1.186167 -78.878653 21.515310 2.408296 -3.818659 -14.229249 -0.012018 -2.500104 5.352760 -0.116213 -0.071486 -0.113396 -0.000000 0.000000 0.000000 0.000000 0.000000 0.000000 0.000000 11.395543 -7.431919 -1.537927 57.396318 16.967520 18.226437 1.182846 57.107870 0.003481 -1.201234 7.141460 -0.079743 0.051516 -0.222214 0.000000 0.000000 0.000000 0.000000 0.000000 0.000000 0.000000 
-0.799427 16.921056 -0.077586 7.630189 64.689869 7.950133 -10.583187 1.586575 1.112373 -5.124112 8.615452 -21.321825 -1.888542 0.755487 21.033719 0.441613 2.312130 0.876947 0.372700 0.000000 -38.274200 11.185664 -3.152394 -0.999871 -0.667128 -6.011937 0.033954 -1.043625 -3.590442 48.982120 -1.023364 -2.513043 11.860225 -0.553500 -0.000000 -56.314499 -5.913718 -0.382145 -2.664670 -1.691140 -0.062352 -2.890631 -5.227959 -0.141597 2.315916 10.472600 -12.599110 -8.274868 -1.927817 -0.143916 -0.144661 0.000000 0.000000 0.000000 -3.321943 22.507218 1.154848 -78.344407 20.833794 3.006413 -3.816281 -14.344061 -0.011641 -2.384819 5.258593 -0.108698 -0.072673 -0.110670 -0.000000 0.000000 0.000000 0.000000 0.000000 0.000000 0.000000 11.551569 -7.481323 -1.540753 58.380680 16.437874 18.412690 1.236943 56.487189 0.004118 -1.111450 7.122252 -0.073824 0.053040 -0.217917 0.000000 0.000000 0.000000 0.000000 0.000000 0.000000 0.000000 
-0.666862 16.926048 -0.049700 7.699726 63.707549 7.914559 -10.550034 1.657855 1.054410 -5.276946 8.802175 -20.601302 -1.878753 0.735448 21.233112 0.547781 3.227757 0.057563 0.438500 0.000000 -38.556800 11.323880 -3.048944 -1.048086 -1.043484 -6.419265 -1.191766 -1.201395 -3.640378 50.882714 -1.326223 -4.812222 11.669618 -1.253400 -0.000000 -52.086500 -5.997593 -0.469614 -2.605877 -1.711960 -0.142192 -2.890877 -5.263916 -0.220028 2.280066 10.496305 -12.625351 -8.252389 -1.971517 -0.147623 -0.139002 0.000000 0.000000 0.000000 -3.267048 22.173087 1.120560 -77.756044 20.098213 3.620389 -3.812927 -14.412287 -0.011173 -2.206423 5.152419 -0.098181 -0.074343 -0.107854 -0.000000 0.000000 0.000000 0.000000 0.000000 0.000000 0.000000 11.726885 -7.540579 -1.541694 59.362193 15.891345 18.543489 1.295197 55.784934 0.004764 -1.016311 7.105903 -0.067607 0.054521 -0.213262 -0.000000 0.000000 0.000000 0.000000 0.000000 0.000000 0.000000 
